<svg width="234" height="234" viewBox="0 0 234 234" fill="none" xmlns="http://www.w3.org/2000/svg">
<path d="M117 225.316C93.2878 225.309 70.2335 217.519 51.3764 203.143C32.5193 188.767 18.9018 168.599 12.6144 145.735C6.32704 122.872 7.71741 98.5768 16.5721 76.5799C25.4267 54.583 41.2562 36.1003 61.6302 23.9692C82.0043 11.8381 105.797 6.72928 129.355 9.42697C152.913 12.1247 174.935 22.4798 192.039 38.9026C209.144 55.3254 220.385 76.9081 224.038 100.337C227.691 123.766 223.553 147.747 212.26 168.597C202.954 185.747 189.192 200.068 172.427 210.051C155.661 220.034 136.512 225.307 117 225.316V225.316ZM117 15.082C96.8193 15.0658 77.0872 21.0362 60.3008 32.2379C43.5143 43.4396 30.4279 59.369 22.6976 78.0105C14.9672 96.6519 12.9404 117.168 16.8734 136.961C20.8065 156.755 30.5228 174.937 44.7927 189.207C59.0627 203.477 77.2449 213.194 97.0387 217.127C116.832 221.06 137.348 219.033 155.99 211.302C174.631 203.572 190.56 190.486 201.762 173.699C212.964 156.913 218.934 137.181 218.918 117C218.887 89.9792 208.139 64.074 189.033 44.9673C169.926 25.8607 144.021 15.113 117 15.082V15.082Z" fill="white"/>
<path d="M117 188.754C101.293 188.747 86.0223 183.586 73.5319 174.062C61.0416 164.539 52.022 151.179 47.8578 136.034C43.6936 120.889 44.615 104.796 50.4804 90.2252C56.3458 75.6545 66.8311 63.4114 80.3268 55.3754C93.8224 47.3394 109.582 43.9546 125.188 45.7407C140.793 47.5267 155.38 54.3849 166.711 65.2624C178.042 76.1399 185.49 90.4355 187.912 105.955C190.333 121.474 187.594 137.359 180.116 151.171C173.951 162.536 164.834 172.026 153.725 178.641C142.617 185.255 129.929 188.749 117 188.754ZM117 51.6445C104.053 51.6297 91.3921 55.4564 80.6206 62.6403C69.8492 69.8242 61.4512 80.0423 56.4896 92.0012C51.5281 103.96 50.226 117.122 52.7483 129.821C55.2705 142.521 61.5037 154.186 70.6588 163.341C79.8139 172.496 91.4794 178.73 104.179 181.252C116.878 183.774 130.04 182.472 141.999 177.51C153.958 172.549 164.176 164.151 171.36 153.379C178.544 142.608 182.37 129.947 182.355 117C182.336 99.6726 175.444 83.0604 163.192 70.8081C150.94 58.5558 134.327 51.6639 117 51.6445V51.6445Z" fill="white"/>
<path d="M117 161.332C108.232 161.332 99.6608 158.732 92.3705 153.861C85.0801 148.989 79.398 142.066 76.0426 133.965C72.6872 125.865 71.8093 116.951 73.5198 108.351C75.2304 99.7517 79.4526 91.8525 85.6525 85.6525C91.8525 79.4526 99.7517 75.2304 108.351 73.5198C116.951 71.8093 125.865 72.6872 133.965 76.0426C142.066 79.3979 148.99 85.0801 153.861 92.3705C158.732 99.6608 161.332 108.232 161.332 117C161.334 119.928 161.05 122.849 160.484 125.722C159.623 130.051 158.114 134.225 156.009 138.104C152.202 145.131 146.568 150.999 139.702 155.088C132.835 159.176 124.992 161.334 117 161.332ZM117 79.0664C110.298 79.0704 103.716 80.8501 97.9255 84.2242C92.1346 87.5983 87.3411 92.4465 84.0328 98.2752C80.7244 104.104 79.0194 110.705 79.0913 117.407C79.1632 124.109 81.0094 130.672 84.442 136.428C87.8747 142.185 92.7711 146.929 98.633 150.178C104.495 153.427 111.113 155.065 117.814 154.925C124.515 154.786 131.059 152.873 136.78 149.382C142.501 145.892 147.196 140.947 150.385 135.053C152.183 131.74 153.472 128.175 154.208 124.479C154.692 122.015 154.935 119.511 154.934 117C154.922 106.943 150.922 97.3011 143.81 90.1897C136.699 83.0783 127.057 79.078 117 79.0664V79.0664Z" fill="white"/>
<path d="M105.22 83.3826C109.288 83.3826 112.587 80.0841 112.587 76.0152C112.587 71.9464 109.288 68.6479 105.22 68.6479C101.151 68.6479 97.8522 71.9464 97.8522 76.0152C97.8522 80.0841 101.151 83.3826 105.22 83.3826Z" fill="#247BA0" fill-opacity="0.63"/>
<path d="M153.575 187.396C159.633 187.396 164.544 182.485 164.544 176.427C164.544 170.369 159.633 165.458 153.575 165.458C147.517 165.458 142.607 170.369 142.607 176.427C142.607 182.485 147.517 187.396 153.575 187.396Z" fill="#247BA0" fill-opacity="0.63"/>
<path d="M117 133.172C125.931 133.172 133.172 125.931 133.172 117C133.172 108.069 125.931 100.828 117 100.828C108.069 100.828 100.828 108.069 100.828 117C100.828 125.931 108.069 133.172 117 133.172Z" fill="#247BA0" fill-opacity="0.63"/>
<path d="M225.316 117H117L193.562 40.4381C203.634 50.4813 211.624 62.4144 217.073 75.5528C222.522 88.6912 225.324 102.776 225.316 117Z" fill="#247BA0"/>
</svg>
